<svg width="173.5356658935547px" height="80.85714416503906px" xmlns="http://www.w3.org/2000/svg" viewBox="150 34.57142791748047 173.5356658935547 50" style="background: rgba(0, 0, 0, 0);" preserveAspectRatio="xMidYMid"><defs><linearGradient id="editing-outline-gradient" x1="-0.41354545764260087" x2="1.4135454576426008" y1="0.09326335692419985" y2="0.9067366430758002"><stop offset="0" stop-color="#ff00e9"></stop><stop offset="1" stop-color="#4139ff"></stop></linearGradient><filter id="editing-outline" x="-100%" y="-100%" width="300%" height="300%"><feMorphology in="SourceGraphic" operator="dilate" radius="3" result="outline"></feMorphology><feComposite operator="out" in="outline" in2="SourceAlpha"></feComposite></filter></defs><g filter="url(#editing-outline)"><g transform="translate(194.57502700388432, 89.06000232696533)"><path d="M14.82-2.85L14.82-2.85L14.82-2.85Q14.82-5.51 15.88-10.83L15.88-10.83L10.26-10.83L8.17 0L0.23 0L5.05-25.08L13.07-25.08L10.87-13.87L16.49-13.87L18.58-25.08L26.60-25.08L26.60-25.08Q26.07-22.27 25.38-19.11L25.38-19.11L24.09-12.92L24.09-12.92Q22.65-5.70 22.65-2.55L22.65-2.55L22.65-2.55Q22.65-1.25 23.07-0.53L23.07-0.53L23.07-0.53Q21.17 0.76 18.94 0.76L18.94 0.76L18.94 0.76Q16.72 0.76 15.77-0.30L15.77-0.30L15.77-0.30Q14.82-1.37 14.82-2.85ZM29.16-1.14L29.16-1.14L29.16-1.14Q28.27-2.13 27.87-3.69L27.87-3.69L27.87-3.69Q27.47-5.24 27.47-7.79L27.47-7.79L27.47-7.79Q27.47-10.34 28.35-12.65L28.35-12.65L28.35-12.65Q29.22-14.97 30.82-16.64L30.82-16.64L30.82-16.64Q34.09-20.14 39.48-20.14L39.48-20.14L39.48-20.14Q41.42-20.14 42.83-19.49L42.83-19.49L49.32-20.14L46.51-5.32L46.51-5.32Q46.40-4.86 46.40-4.03L46.40-4.03L46.40-4.03Q46.40-3.19 46.91-2.66L46.91-2.66L46.91-2.66Q47.42-2.13 48.18-2.05L48.18-2.05L48.18-2.05Q47.80-0.76 46.42 0L46.42 0L46.42 0Q45.03 0.76 43.47 0.76L43.47 0.76L43.47 0.76Q41.91 0.76 40.87 0.17L40.87 0.17L40.87 0.17Q39.82-0.42 39.52-1.41L39.52-1.41L39.52-1.41Q38.91-0.46 37.62 0.15L37.62 0.15L37.62 0.15Q36.33 0.76 34.60 0.76L34.60 0.76L34.60 0.76Q32.87 0.76 31.46 0.30L31.46 0.30L31.46 0.30Q30.06-0.15 29.16-1.14ZM37.18-16.57L37.18-16.57L37.18-16.57Q36.75-15.88 36.37-14.72L36.37-14.72L36.37-14.72Q35.99-13.57 35.36-10.47L35.36-10.47L35.36-10.47Q34.73-7.37 34.73-5.17L34.73-5.17L34.73-5.17Q34.73-2.96 35.07-2.32L35.07-2.32L35.07-2.32Q35.42-1.67 36.02-1.67L36.02-1.67L36.02-1.67Q37.24-1.67 38.13-2.83L38.13-2.83L38.13-2.83Q39.03-3.99 39.37-6.04L39.37-6.04L41.38-17.18L41.38-17.18Q40.58-17.86 39.65-17.86L39.65-17.86L39.65-17.86Q38.72-17.86 38.17-17.56L38.17-17.56L38.17-17.56Q37.62-17.25 37.18-16.57ZM63.27-10.68L63.27-10.68L63.27-10.68Q64.64-13.11 64.64-15.58L64.64-15.58L64.64-15.58Q64.64-17.21 63.46-17.21L63.46-17.21L63.46-17.21Q62.55-17.21 61.60-15.66L61.60-15.66L61.60-15.66Q60.61-14.10 60.31-12.08L60.31-12.08L58.33 0L50.46 0.76L54.34-19.38L60.61-20.14L59.93-16.30L59.93-16.30Q61.79-20.14 65.97-20.14L65.97-20.14L65.97-20.14Q68.17-20.14 69.37-19L69.37-19L69.37-19Q70.57-17.86 70.57-15.52L70.57-15.52L70.57-15.52Q70.57-13.19 69.03-11.70L69.03-11.70L69.03-11.70Q67.49-10.22 64.87-10.22L64.87-10.22L64.87-10.22Q63.73-10.22 63.27-10.68ZM82.54-13.34L82.54-13.34L82.54-13.34Q83.07-14.74 83.07-15.96L83.07-15.96L83.07-15.96Q83.07-18.20 81.24-18.20L81.24-18.20L81.24-18.20Q80.29-18.20 79.52-17.35L79.52-17.35L79.52-17.35Q78.74-16.49 78.74-15.43L78.74-15.43L78.74-15.43Q78.74-14.67 79.34-14.06L79.34-14.06L79.34-14.06Q80.22-13.22 82.46-11.86L82.46-11.86L82.46-11.86Q84.70-10.49 85.56-9.37L85.56-9.37L85.56-9.37Q86.41-8.25 86.41-6.71L86.41-6.71L86.41-6.71Q86.41-5.17 85.67-3.76L85.67-3.76L85.67-3.76Q84.93-2.36 83.60-1.37L83.60-1.37L83.60-1.37Q80.75 0.76 76.19 0.76L76.19 0.76L76.19 0.76Q73.72 0.76 71.82-0.53L71.82-0.53L71.82-0.53Q69.92-1.79 69.92-3.27L69.92-3.27L69.92-3.27Q69.92-4.75 71.00-5.62L71.00-5.62L71.00-5.62Q72.09-6.50 73.68-6.50L73.68-6.50L73.68-6.50Q75.28-6.50 76.27-5.89L76.27-5.89L76.27-5.89Q75.77-4.64 75.77-3.80L75.77-3.80L75.77-3.80Q75.77-1.29 77.90-1.29L77.90-1.29L77.90-1.29Q78.81-1.29 79.42-1.86L79.42-1.86L79.42-1.86Q80.03-2.43 80.03-3.42L80.03-3.42L80.03-3.42Q80.03-5.36 76.76-7.41L76.76-7.41L76.76-7.41Q74.10-9.16 73.49-9.84L73.49-9.84L73.49-9.84Q72.47-11.06 72.47-12.58L72.47-12.58L72.47-12.58Q72.47-14.10 73.19-15.54L73.19-15.54L73.19-15.54Q73.91-16.99 75.24-18.01L75.24-18.01L75.24-18.01Q78.01-20.14 82.84-20.14L82.84-20.14L82.84-20.14Q85.31-20.14 86.77-19.15L86.77-19.15L86.77-19.15Q88.24-18.16 88.24-16.49L88.24-16.49L88.24-16.49Q88.24-14.82 87.23-13.87L87.23-13.87L87.23-13.87Q86.22-12.92 84.40-12.92L84.40-12.92L84.40-12.92Q83.14-12.92 82.54-13.34ZM108.76-4.22L108.76-4.22L108.76-4.22Q108.76-2.55 110.47-2.05L110.47-2.05L110.47-2.05Q110.05-0.65 108.41 0.11L108.41 0.11L108.41 0.11Q107.05 0.76 105.55 0.76L105.55 0.76L105.55 0.76Q104.04 0.76 103.27 0.36L103.27 0.36L103.27 0.36Q102.49-0.04 102.07-0.68L102.07-0.68L102.07-0.68Q101.38-1.67 101.38-3.53L101.38-3.53L101.38-3.53Q101.38-4.64 101.99-7.68L101.99-7.68L102.52-10.56L102.52-10.56Q103.17-13.87 103.17-15.09L103.17-15.09L103.17-15.09Q103.17-17.21 101.99-17.21L101.99-17.21L101.99-17.21Q100.51-17.21 99.56-15.05L99.56-15.05L99.56-15.05Q99.18-14.21 98.91-12.96L98.91-12.96L96.33 0L88.69 0.76L94.05-26.60L101.69-27.36L101.38-25.84L101.38-25.84Q100.32-19.99 99.41-18.01L99.41-18.01L99.41-18.01Q101.54-20.14 105.45-20.14L105.45-20.14L105.45-20.14Q109.59-20.14 110.35-17.40L110.35-17.40L110.35-17.40Q110.62-16.53 110.62-15.77L110.62-15.77L110.62-15.77Q110.62-15.01 110.56-14.42L110.56-14.42L110.56-14.42Q110.50-13.83 110.31-12.77L110.31-12.77L109.82-10.03L108.95-5.74L108.95-5.74Q108.76-4.86 108.76-4.22Z" fill="url(#editing-outline-gradient)"></path></g></g><style>text {
  font-size: 64px;
  font-family: Arial Black;
  dominant-baseline: central;
  text-anchor: middle;
}</style></svg>