<svg width="333.06874999999997px" height="154.4px" xmlns="http://www.w3.org/2000/svg" viewBox="83.46562500000002 -2.200000000000003 333.06874999999997 154.4" style="background: rgba(0, 0, 0, 0);" preserveAspectRatio="xMidYMid"><defs><linearGradient id="editing-gradow-gradient" x1="0" x2="1" y1="0.5" y2="0.5" gradientUnits="objectBoundingBox"><stop offset="0" stop-color="#f0f"></stop><stop offset="1" stop-color="#0ff"></stop></linearGradient><filter id="editing-gradow-filter" x="-100%" y="-100%" width="300%" height="300%"><feFlood flood-color="#fffcd9" result="flood"></feFlood><feComposite operator="in" in2="SourceAlpha" in="flood" result="shadow"></feComposite><feOffset dx="2.1" dy="-4" in="SourceGraphic" result="offset-1"></feOffset><feOffset dx="-2.1" dy="4" in="shadow" result="offset-2"></feOffset><feMerge><feMergeNode in="offset-2"></feMergeNode><feMergeNode in="offset-1"></feMergeNode></feMerge></filter></defs><g filter="url(#editing-gradow-filter)"><g transform="translate(134.6899971961975, 103.51500129699707)"><path d="M59.04-56.02L59.04-44.21L55.44-44.21L55.44-11.81L59.04-11.81L59.04 0L31.82 0L31.82-11.81L35.28-11.81L35.28-23.69L25.20-23.69L25.20-11.81L28.66-11.81L28.66 0L1.44 0L1.44-11.81L5.04-11.81L5.04-44.21L1.44-44.21L1.44-56.02L28.66-56.02L28.66-44.21L25.20-44.21L25.20-33.26L35.28-33.26L35.28-44.21L31.82-44.21L31.82-56.02L59.04-56.02ZM100.58-11.81L103.75-11.81L103.75 0L84.74 0L84.74-4.90L84.74-4.90Q83.16-2.59 80.32-0.79L80.32-0.79L80.32-0.79Q77.47 1.01 73.37 1.01L73.37 1.01L73.37 1.01Q67.97 1.01 64.87-1.87L64.87-1.87L64.87-1.87Q61.78-4.75 61.78-10.01L61.78-10.01L61.78-10.01Q61.78-23.62 84.89-23.98L84.89-23.98L84.89-23.98Q84.67-26.42 83.02-27.32L83.02-27.32L83.02-27.32Q81.36-28.22 77.40-28.22L77.40-28.22L77.40-28.22Q74.16-28.22 70.45-27.54L70.45-27.54L70.45-27.54Q66.74-26.86 63.65-25.70L63.65-25.70L63.65-38.95L63.65-38.95Q67.46-39.89 71.93-40.46L71.93-40.46L71.93-40.46Q76.39-41.04 80.64-41.04L80.64-41.04L80.64-41.04Q91.37-41.04 95.98-37.15L95.98-37.15L95.98-37.15Q100.58-33.26 100.58-25.13L100.58-25.13L100.58-11.81ZM84.74-16.42L84.74-16.85L84.74-16.85Q81.50-16.85 79.74-15.98L79.74-15.98L79.74-15.98Q77.98-15.12 77.98-13.10L77.98-13.10L77.98-13.10Q77.98-11.88 78.73-11.12L78.73-11.12L78.73-11.12Q79.49-10.37 80.86-10.37L80.86-10.37L80.86-10.37Q82.73-10.37 83.74-11.95L83.74-11.95L83.74-11.95Q84.74-13.54 84.74-16.42L84.74-16.42ZM136.80-41.04L136.80-41.04Q138.24-41.04 139.54-40.75L139.54-40.75L139.54-40.75Q140.83-40.46 141.70-40.03L141.70-40.03L141.70-26.28L141.70-26.28Q138.74-27.50 135.36-27.50L135.36-27.50L135.36-27.50Q130.82-27.50 128.38-25.13L128.38-25.13L128.38-25.13Q125.93-22.75 125.93-18.07L125.93-18.07L125.93-11.81L132.41-11.81L132.41 0L106.20 0L106.20-11.81L109.37-11.81L109.37-28.22L106.20-28.22L106.20-40.03L125.93-40.03L125.93-34.78L125.93-34.78Q127.94-37.80 130.54-39.42L130.54-39.42L130.54-39.42Q133.13-41.04 136.80-41.04L136.80-41.04ZM161.50 1.01L161.50 1.01Q152.42 1.01 144-1.87L144-1.87L144-12.53L155.66-12.53L155.66-11.81L155.66-11.81Q155.66-8.35 160.06-8.35L160.06-8.35L160.06-8.35Q163.94-8.35 163.94-11.02L163.94-11.02L163.94-11.02Q163.94-12.46 162.83-13.18L162.83-13.18L162.83-13.18Q161.71-13.90 158.90-14.40L158.90-14.40L155.30-15.05L155.30-15.05Q144-17.06 144-27.86L144-27.86L144-27.86Q144-34.13 148.75-37.58L148.75-37.58L148.75-37.58Q153.50-41.04 161.57-41.04L161.57-41.04L161.57-41.04Q170.57-41.04 176.76-38.02L176.76-38.02L176.76-28.01L165.82-28.01L165.82-28.73L165.82-28.73Q165.82-30.17 164.84-30.92L164.84-30.92L164.84-30.92Q163.87-31.68 162-31.68L162-31.68L162-31.68Q158.40-31.68 158.40-29.38L158.40-29.38L158.40-29.38Q158.40-28.15 159.41-27.50L159.41-27.50L159.41-27.50Q160.42-26.86 163.08-26.28L163.08-26.28L167.18-25.49L167.18-25.49Q173.59-24.26 176.33-20.95L176.33-20.95L176.33-20.95Q179.06-17.64 179.06-12.46L179.06-12.46L179.06-12.46Q179.06-5.90 174.49-2.45L174.49-2.45L174.49-2.45Q169.92 1.01 161.50 1.01L161.50 1.01ZM226.01-11.81L229.18-11.81L229.18 0L206.42 0L206.42-11.81L209.45-11.81L209.45-23.62L209.45-23.62Q209.45-25.99 208.44-27.11L208.44-27.11L208.44-27.11Q207.43-28.22 205.42-28.22L205.42-28.22L205.42-28.22Q201.10-28.22 201.10-23.62L201.10-23.62L201.10-11.81L204.12-11.81L204.12 0L181.37 0L181.37-11.81L184.54-11.81L184.54-44.21L181.37-44.21L181.37-56.02L201.10-56.02L201.10-34.42L201.10-34.42Q203.76-37.73 206.86-39.38L206.86-39.38L206.86-39.38Q209.95-41.04 214.06-41.04L214.06-41.04L214.06-41.04Q220.03-41.04 223.02-37.30L223.02-37.30L223.02-37.30Q226.01-33.55 226.01-27.00L226.01-27.00L226.01-11.81Z" fill="url(#editing-gradow-gradient)"></path></g></g><style>text {
  font-size: 64px;
  font-family: Arial Black;
  dominant-baseline: central;
  text-anchor: middle;
}</style></svg>