<svg width="305.53203125px" height="69.19999999999999px" xmlns="http://www.w3.org/2000/svg" viewBox="97.233984375 40.400000000000006 305.53203125 69.19999999999999" style="background: rgba(0, 0, 0, 0);" preserveAspectRatio="xMidYMid"><defs><linearGradient id="editing-gradient-gradient" x1="0" x2="1" y1="0.5" y2="0.5" gradientUnits="objectBoundingBox"><stop offset="0" stop-color="#f0f"></stop><stop offset="1" stop-color="#0ff"></stop></linearGradient></defs><g><g transform="translate(145.35625886917114, 85.29500198364258)"><path d="M21.32-20.23L21.32-15.96L20.02-15.96L20.02-4.26L21.32-4.26L21.32 0L11.49 0L11.49-4.26L12.74-4.26L12.74-8.55L9.10-8.55L9.10-4.26L10.35-4.26L10.35 0L0.52 0L0.52-4.26L1.82-4.26L1.82-15.96L0.52-15.96L0.52-20.23L10.35-20.23L10.35-15.96L9.10-15.96L9.10-12.01L12.74-12.01L12.74-15.96L11.49-15.96L11.49-20.23L21.32-20.23ZM36.32-4.26L37.47-4.26L37.47 0L30.60 0L30.60-1.77L30.60-1.77Q30.03-0.94 29.00-0.29L29.00-0.29L29.00-0.29Q27.98 0.36 26.49 0.36L26.49 0.36L26.49 0.36Q24.54 0.36 23.43-0.68L23.43-0.68L23.43-0.68Q22.31-1.72 22.31-3.61L22.31-3.61L22.31-3.61Q22.31-8.53 30.65-8.66L30.65-8.66L30.65-8.66Q30.58-9.54 29.98-9.87L29.98-9.87L29.98-9.87Q29.38-10.19 27.95-10.19L27.95-10.19L27.95-10.19Q26.78-10.19 25.44-9.95L25.44-9.95L25.44-9.95Q24.10-9.70 22.98-9.28L22.98-9.28L22.98-14.07L22.98-14.07Q24.36-14.40 25.97-14.61L25.97-14.61L25.97-14.61Q27.59-14.82 29.12-14.82L29.12-14.82L29.12-14.82Q32.99-14.82 34.66-13.42L34.66-13.42L34.66-13.42Q36.32-12.01 36.32-9.07L36.32-9.07L36.32-4.26ZM30.60-5.93L30.60-6.08L30.60-6.08Q29.43-6.08 28.80-5.77L28.80-5.77L28.80-5.77Q28.16-5.46 28.16-4.73L28.16-4.73L28.16-4.73Q28.16-4.29 28.43-4.02L28.43-4.02L28.43-4.02Q28.70-3.74 29.20-3.74L29.20-3.74L29.20-3.74Q29.87-3.74 30.24-4.32L30.24-4.32L30.24-4.32Q30.60-4.89 30.60-5.93L30.60-5.93ZM49.40-14.82L49.40-14.82Q49.92-14.82 50.39-14.72L50.39-14.72L50.39-14.72Q50.86-14.61 51.17-14.46L51.17-14.46L51.17-9.49L51.17-9.49Q50.10-9.93 48.88-9.93L48.88-9.93L48.88-9.93Q47.24-9.93 46.36-9.07L46.36-9.07L46.36-9.07Q45.47-8.22 45.47-6.53L45.47-6.53L45.47-4.26L47.81-4.26L47.81 0L38.35 0L38.35-4.26L39.49-4.26L39.49-10.19L38.35-10.19L38.35-14.46L45.47-14.46L45.47-12.56L45.47-12.56Q46.20-13.65 47.14-14.24L47.14-14.24L47.14-14.24Q48.07-14.82 49.40-14.82L49.40-14.82ZM58.32 0.36L58.32 0.36Q55.04 0.36 52.00-0.68L52.00-0.68L52.00-4.52L56.21-4.52L56.21-4.26L56.21-4.26Q56.21-3.02 57.80-3.02L57.80-3.02L57.80-3.02Q59.20-3.02 59.20-3.98L59.20-3.98L59.20-3.98Q59.20-4.50 58.80-4.76L58.80-4.76L58.80-4.76Q58.40-5.02 57.38-5.20L57.38-5.20L56.08-5.43L56.08-5.43Q52.00-6.16 52.00-10.06L52.00-10.06L52.00-10.06Q52.00-12.32 53.72-13.57L53.72-13.57L53.72-13.57Q55.43-14.82 58.34-14.82L58.34-14.82L58.34-14.82Q61.59-14.82 63.83-13.73L63.83-13.73L63.83-10.11L59.88-10.11L59.88-10.37L59.88-10.37Q59.88-10.89 59.53-11.17L59.53-11.17L59.53-11.17Q59.18-11.44 58.50-11.44L58.50-11.44L58.50-11.44Q57.20-11.44 57.20-10.61L57.20-10.61L57.20-10.61Q57.20-10.17 57.56-9.93L57.56-9.93L57.56-9.93Q57.93-9.70 58.89-9.49L58.89-9.49L60.37-9.20L60.37-9.20Q62.69-8.76 63.67-7.57L63.67-7.57L63.67-7.57Q64.66-6.37 64.66-4.50L64.66-4.50L64.66-4.50Q64.66-2.13 63.01-0.88L63.01-0.88L63.01-0.88Q61.36 0.36 58.32 0.36L58.32 0.36ZM81.61-4.26L82.76-4.26L82.76 0L74.54 0L74.54-4.26L75.63-4.26L75.63-8.53L75.63-8.53Q75.63-9.39 75.27-9.79L75.27-9.79L75.27-9.79Q74.91-10.19 74.18-10.19L74.18-10.19L74.18-10.19Q72.62-10.19 72.62-8.53L72.62-8.53L72.62-4.26L73.71-4.26L73.71 0L65.49 0L65.49-4.26L66.64-4.26L66.64-15.96L65.49-15.96L65.49-20.23L72.62-20.23L72.62-12.43L72.62-12.43Q73.58-13.62 74.70-14.22L74.70-14.22L74.70-14.22Q75.82-14.82 77.30-14.82L77.30-14.82L77.30-14.82Q79.46-14.82 80.54-13.47L80.54-13.47L80.54-13.47Q81.61-12.12 81.61-9.75L81.61-9.75L81.61-4.26ZM102.36-15.96L102.36-20.23L111.05-20.23L111.05-15.96L110.01-15.96L105.35 0L96.93 0L92.27-15.96L91.23-15.96L91.23-20.23L101.22-20.23L101.22-15.96L99.87-15.96L101.66-7.25L101.92-7.25L103.71-15.96L102.36-15.96ZM125.06-4.26L126.20-4.26L126.20 0L119.34 0L119.34-1.77L119.34-1.77Q118.77-0.94 117.74-0.29L117.74-0.29L117.74-0.29Q116.71 0.36 115.23 0.36L115.23 0.36L115.23 0.36Q113.28 0.36 112.16-0.68L112.16-0.68L112.16-0.68Q111.05-1.72 111.05-3.61L111.05-3.61L111.05-3.61Q111.05-8.53 119.39-8.66L119.39-8.66L119.39-8.66Q119.31-9.54 118.72-9.87L118.72-9.87L118.72-9.87Q118.12-10.19 116.69-10.19L116.69-10.19L116.69-10.19Q115.52-10.19 114.18-9.95L114.18-9.95L114.18-9.95Q112.84-9.70 111.72-9.28L111.72-9.28L111.72-14.07L111.72-14.07Q113.10-14.40 114.71-14.61L114.71-14.61L114.71-14.61Q116.32-14.82 117.86-14.82L117.86-14.82L117.86-14.82Q121.73-14.82 123.40-13.42L123.40-13.42L123.40-13.42Q125.06-12.01 125.06-9.07L125.06-9.07L125.06-4.26ZM119.34-5.93L119.34-6.08L119.34-6.08Q118.17-6.08 117.53-5.77L117.53-5.77L117.53-5.77Q116.90-5.46 116.90-4.73L116.90-4.73L116.90-4.73Q116.90-4.29 117.17-4.02L117.17-4.02L117.17-4.02Q117.44-3.74 117.94-3.74L117.94-3.74L117.94-3.74Q118.61-3.74 118.98-4.32L118.98-4.32L118.98-4.32Q119.34-4.89 119.34-5.93L119.34-5.93ZM138.14-14.82L138.14-14.82Q138.66-14.82 139.13-14.72L139.13-14.72L139.13-14.72Q139.59-14.61 139.91-14.46L139.91-14.46L139.91-9.49L139.91-9.49Q138.84-9.93 137.62-9.93L137.62-9.93L137.62-9.93Q135.98-9.93 135.10-9.07L135.10-9.07L135.10-9.07Q134.21-8.22 134.21-6.53L134.21-6.53L134.21-4.26L136.55-4.26L136.55 0L127.09 0L127.09-4.26L128.23-4.26L128.23-10.19L127.09-10.19L127.09-14.46L134.21-14.46L134.21-12.56L134.21-12.56Q134.94-13.65 135.88-14.24L135.88-14.24L135.88-14.24Q136.81-14.82 138.14-14.82L138.14-14.82ZM145.86 0.36L145.86 0.36Q143.21 0.36 141.87-1.61L141.87-1.61L141.87-1.61Q140.53-3.59 140.53-7.23L140.53-7.23L140.53-7.23Q140.53-10.87 141.87-12.84L141.87-12.84L141.87-12.84Q143.21-14.82 145.86-14.82L145.86-14.82L145.86-14.82Q147.19-14.82 148.21-14.17L148.21-14.17L148.21-14.17Q149.24-13.52 149.89-12.69L149.89-12.69L149.89-15.96L148.36-15.96L148.36-20.23L155.87-20.23L155.87-4.26L157.01-4.26L157.01 0L149.89 0L149.89-1.77L149.89-1.77Q149.24-0.94 148.21-0.29L148.21-0.29L148.21-0.29Q147.19 0.36 145.86 0.36L145.86 0.36ZM148.38-4.26L148.38-4.26Q149.14-4.26 149.51-4.67L149.51-4.67L149.51-4.67Q149.89-5.07 149.89-5.93L149.89-5.93L149.89-8.53L149.89-8.53Q149.89-9.39 149.51-9.79L149.51-9.79L149.51-9.79Q149.14-10.19 148.38-10.19L148.38-10.19L148.38-10.19Q147.63-10.19 147.25-9.79L147.25-9.79L147.25-9.79Q146.87-9.39 146.87-8.53L146.87-8.53L146.87-5.93L146.87-5.93Q146.87-5.07 147.25-4.67L147.25-4.67L147.25-4.67Q147.63-4.26 148.38-4.26L148.38-4.26ZM173.97-4.26L175.11-4.26L175.11 0L166.89 0L166.89-4.26L167.99-4.26L167.99-8.53L167.99-8.53Q167.99-9.39 167.62-9.79L167.62-9.79L167.62-9.79Q167.26-10.19 166.53-10.19L166.53-10.19L166.53-10.19Q164.97-10.19 164.97-8.53L164.97-8.53L164.97-4.26L166.06-4.26L166.06 0L157.85 0L157.85-4.26L158.99-4.26L158.99-15.96L157.85-15.96L157.85-20.23L164.97-20.23L164.97-12.43L164.97-12.43Q165.93-13.62 167.05-14.22L167.05-14.22L167.05-14.22Q168.17-14.82 169.65-14.82L169.65-14.82L169.65-14.82Q171.81-14.82 172.89-13.47L172.89-13.47L172.89-13.47Q173.97-12.12 173.97-9.75L173.97-9.75L173.97-4.26ZM189.96-4.26L191.10-4.26L191.10 0L184.24 0L184.24-1.77L184.24-1.77Q183.66-0.94 182.64-0.29L182.64-0.29L182.64-0.29Q181.61 0.36 180.13 0.36L180.13 0.36L180.13 0.36Q178.18 0.36 177.06-0.68L177.06-0.68L177.06-0.68Q175.94-1.72 175.94-3.61L175.94-3.61L175.94-3.61Q175.94-8.53 184.29-8.66L184.29-8.66L184.29-8.66Q184.21-9.54 183.61-9.87L183.61-9.87L183.61-9.87Q183.01-10.19 181.58-10.19L181.58-10.19L181.58-10.19Q180.41-10.19 179.08-9.95L179.08-9.95L179.08-9.95Q177.74-9.70 176.62-9.28L176.62-9.28L176.62-14.07L176.62-14.07Q178.00-14.40 179.61-14.61L179.61-14.61L179.61-14.61Q181.22-14.82 182.75-14.82L182.75-14.82L182.75-14.82Q186.63-14.82 188.29-13.42L188.29-13.42L188.29-13.42Q189.96-12.01 189.96-9.07L189.96-9.07L189.96-4.26ZM184.24-5.93L184.24-6.08L184.24-6.08Q183.07-6.08 182.43-5.77L182.43-5.77L182.43-5.77Q181.79-5.46 181.79-4.73L181.79-4.73L181.79-4.73Q181.79-4.29 182.07-4.02L182.07-4.02L182.07-4.02Q182.34-3.74 182.83-3.74L182.83-3.74L182.83-3.74Q183.51-3.74 183.87-4.32L183.87-4.32L183.87-4.32Q184.24-4.89 184.24-5.93L184.24-5.93ZM208.05-4.26L209.20-4.26L209.20 0L200.98 0L200.98-4.26L202.07-4.26L202.07-8.53L202.07-8.53Q202.07-9.39 201.71-9.79L201.71-9.79L201.71-9.79Q201.34-10.19 200.62-10.19L200.62-10.19L200.62-10.19Q199.06-10.19 199.06-8.53L199.06-8.53L199.06-4.26L200.15-4.26L200.15 0L191.93 0L191.93-4.26L193.08-4.26L193.08-10.19L191.93-10.19L191.93-14.46L199.06-14.46L199.06-12.43L199.06-12.43Q200.93-14.82 203.74-14.82L203.74-14.82L203.74-14.82Q205.89-14.82 206.97-13.47L206.97-13.47L206.97-13.47Q208.05-12.12 208.05-9.75L208.05-9.75L208.05-4.26Z" fill="url(#editing-gradient-gradient)"></path></g></g><style>text {
  font-size: 64px;
  font-family: Arial Black;
  dominant-baseline: central;
  text-anchor: middle;
}</style></svg>