<svg width="239.84385986328124px" height="80.85714416503906px" xmlns="http://www.w3.org/2000/svg" viewBox="130.07807006835938 55.57142791748047 239.84385986328124 80.85714416503906" style="background: rgba(0, 0, 0, 0);" preserveAspectRatio="xMidYMid"><defs><linearGradient id="editing-outline-gradient" x1="-0.41354545764260087" x2="1.4135454576426008" y1="0.09326335692419985" y2="0.9067366430758002"><stop offset="0" stop-color="#4139ff"></stop><stop offset="1" stop-color="#ff00e9"></stop></linearGradient><filter id="editing-outline" x="-100%" y="-100%" width="300%" height="300%"><feMorphology in="SourceGraphic" operator="dilate" radius="3" result="outline"></feMorphology><feComposite operator="out" in="outline" in2="SourceAlpha"></feComposite></filter></defs><g filter="url(#editing-outline)"><g transform="translate(169.57002866268158, 89.06000232696533)"><path d="M1.60-23.56L1.60-23.56L1.60-23.56Q2.70-25.84 5.76-25.84L5.76-25.84L5.76-25.84Q8.82-25.84 10.24-24.07L10.24-24.07L10.24-24.07Q11.67-22.31 11.67-18.24L11.67-18.24L11.67-4.67L20.90-25.04L25.42-25.04L13.60 0L4.71 0L3.57-18.24L3.57-18.24Q3.46-20.25 2.91-21.62L2.91-21.62L2.91-21.62Q2.36-22.99 1.60-23.56ZM24.95-1.14L24.95-1.14L24.95-1.14Q24.05-2.13 23.66-3.69L23.66-3.69L23.66-3.69Q23.26-5.24 23.26-7.79L23.26-7.79L23.26-7.79Q23.26-10.34 24.13-12.65L24.13-12.65L24.13-12.65Q25.00-14.97 26.60-16.64L26.60-16.64L26.60-16.64Q29.87-20.14 35.26-20.14L35.26-20.14L35.26-20.14Q37.20-20.14 38.61-19.49L38.61-19.49L45.11-20.14L42.29-5.32L42.29-5.32Q42.18-4.86 42.18-4.03L42.18-4.03L42.18-4.03Q42.18-3.19 42.69-2.66L42.69-2.66L42.69-2.66Q43.21-2.13 43.97-2.05L43.97-2.05L43.97-2.05Q43.59-0.76 42.20 0L42.20 0L42.20 0Q40.81 0.76 39.25 0.76L39.25 0.76L39.25 0.76Q37.70 0.76 36.65 0.17L36.65 0.17L36.65 0.17Q35.61-0.42 35.30-1.41L35.30-1.41L35.30-1.41Q34.69-0.46 33.40 0.15L33.40 0.15L33.40 0.15Q32.11 0.76 30.38 0.76L30.38 0.76L30.38 0.76Q28.65 0.76 27.25 0.30L27.25 0.30L27.25 0.30Q25.84-0.15 24.95-1.14ZM32.97-16.57L32.97-16.57L32.97-16.57Q32.53-15.88 32.15-14.72L32.15-14.72L32.15-14.72Q31.77-13.57 31.14-10.47L31.14-10.47L31.14-10.47Q30.51-7.37 30.51-5.17L30.51-5.17L30.51-5.17Q30.51-2.96 30.86-2.32L30.86-2.32L30.86-2.32Q31.20-1.67 31.81-1.67L31.81-1.67L31.81-1.67Q33.02-1.67 33.91-2.83L33.91-2.83L33.91-2.83Q34.81-3.99 35.15-6.04L35.15-6.04L37.16-17.18L37.16-17.18Q36.37-17.86 35.44-17.86L35.44-17.86L35.44-17.86Q34.50-17.86 33.95-17.56L33.95-17.56L33.95-17.56Q33.40-17.25 32.97-16.57ZM59.05-10.68L59.05-10.68L59.05-10.68Q60.42-13.11 60.42-15.58L60.42-15.58L60.42-15.58Q60.42-17.21 59.24-17.21L59.24-17.21L59.24-17.21Q58.33-17.21 57.38-15.66L57.38-15.66L57.38-15.66Q56.39-14.10 56.09-12.08L56.09-12.08L54.11 0L46.25 0.76L50.12-19.38L56.39-20.14L55.71-16.30L55.71-16.30Q57.57-20.14 61.75-20.14L61.75-20.14L61.75-20.14Q63.95-20.14 65.15-19L65.15-19L65.15-19Q66.35-17.86 66.35-15.52L66.35-15.52L66.35-15.52Q66.35-13.19 64.81-11.70L64.81-11.70L64.81-11.70Q63.27-10.22 60.65-10.22L60.65-10.22L60.65-10.22Q59.51-10.22 59.05-10.68ZM78.93-20.14L78.93-20.14L78.93-20.14Q80.29-20.14 81.36-19.84L81.36-19.84L81.36-19.84Q81.40-19.99 81.47-20.41L81.47-20.41L81.66-21.58L81.66-21.58Q81.81-22.34 82.04-23.60L82.04-23.60L82.65-26.60L90.21-27.36L85.99-5.32L85.99-5.32Q85.96-5.09 85.96-4.71L85.96-4.71L85.96-4.10L85.96-4.10Q85.96-3.27 86.37-2.64L86.37-2.64L86.37-2.64Q86.79-2.01 87.48-2.01L87.48-2.01L87.48-2.01Q86.72-0.23 84.40 0.53L84.40 0.53L84.40 0.53Q83.60 0.76 82.48 0.76L82.48 0.76L82.48 0.76Q81.36 0.76 80.33 0.17L80.33 0.17L80.33 0.17Q79.31-0.42 79.00-1.41L79.00-1.41L79.00-1.41Q78.39-0.42 77.18 0.17L77.18 0.17L77.18 0.17Q75.96 0.76 74.20 0.76L74.20 0.76L74.20 0.76Q72.43 0.76 70.97 0.30L70.97 0.30L70.97 0.30Q69.50-0.15 68.59-1.14L68.59-1.14L68.59-1.14Q66.92-3.08 66.92-7.49L66.92-7.49L66.92-7.49Q66.92-13.19 70.26-16.64L70.26-16.64L70.26-16.64Q73.61-20.14 78.93-20.14ZM78.66-17.86L78.66-17.86L78.66-17.86Q77.25-17.86 76.49-16.34L76.49-16.34L76.49-16.34Q75.73-14.82 74.95-11.06L74.95-11.06L74.95-11.06Q74.18-7.30 74.18-3.91L74.18-3.91L74.18-3.91Q74.18-1.60 75.54-1.60L75.54-1.60L75.54-1.60Q76.76-1.60 77.62-2.81L77.62-2.81L77.62-2.81Q78.47-4.03 78.81-6.04L78.81-6.04L80.86-17.18L80.86-17.18Q80.07-17.86 78.66-17.86ZM109.82-4.22L109.82-4.22L109.82-4.22Q109.82-2.55 111.53-2.05L111.53-2.05L111.53-2.05Q111.11-0.65 109.48 0.11L109.48 0.11L109.48 0.11Q108.11 0.76 106.61 0.76L106.61 0.76L106.61 0.76Q105.11 0.76 104.33 0.36L104.33 0.36L104.33 0.36Q103.55-0.04 103.13-0.68L103.13-0.68L103.13-0.68Q102.45-1.67 102.45-3.53L102.45-3.53L102.45-3.53Q102.45-4.64 103.06-7.68L103.06-7.68L103.59-10.56L103.59-10.56Q104.23-13.87 104.23-15.09L104.23-15.09L104.23-15.09Q104.23-17.21 103.06-17.21L103.06-17.21L103.06-17.21Q101.57-17.21 100.62-15.05L100.62-15.05L100.62-15.05Q100.24-14.21 99.98-12.96L99.98-12.96L97.39 0L89.76 0.76L95.11-26.60L102.75-27.36L102.45-25.84L102.45-25.84Q101.38-19.99 100.47-18.01L100.47-18.01L100.47-18.01Q102.60-20.14 106.51-20.14L106.51-20.14L106.51-20.14Q110.66-20.14 111.42-17.40L111.42-17.40L111.42-17.40Q111.68-16.53 111.68-15.77L111.68-15.77L111.68-15.77Q111.68-15.01 111.63-14.42L111.63-14.42L111.63-14.42Q111.57-13.83 111.38-12.77L111.38-12.77L110.88-10.03L110.01-5.74L110.01-5.74Q109.82-4.86 109.82-4.22ZM116.26-1.14L116.26-1.14L116.26-1.14Q115.37-2.13 114.97-3.69L114.97-3.69L114.97-3.69Q114.57-5.24 114.57-7.79L114.57-7.79L114.57-7.79Q114.57-10.34 115.44-12.65L115.44-12.65L115.44-12.65Q116.32-14.97 117.91-16.64L117.91-16.64L117.91-16.64Q121.18-20.14 126.58-20.14L126.58-20.14L126.58-20.14Q128.52-20.14 129.92-19.49L129.92-19.49L136.42-20.14L133.61-5.32L133.61-5.32Q133.49-4.86 133.49-4.03L133.49-4.03L133.49-4.03Q133.49-3.19 134.01-2.66L134.01-2.66L134.01-2.66Q134.52-2.13 135.28-2.05L135.28-2.05L135.28-2.05Q134.90-0.76 133.51 0L133.51 0L133.51 0Q132.13 0.76 130.57 0.76L130.57 0.76L130.57 0.76Q129.01 0.76 127.97 0.17L127.97 0.17L127.97 0.17Q126.92-0.42 126.62-1.41L126.62-1.41L126.62-1.41Q126.01-0.46 124.72 0.15L124.72 0.15L124.72 0.15Q123.42 0.76 121.70 0.76L121.70 0.76L121.70 0.76Q119.97 0.76 118.56 0.30L118.56 0.30L118.56 0.30Q117.15-0.15 116.26-1.14ZM124.28-16.57L124.28-16.57L124.28-16.57Q123.84-15.88 123.46-14.72L123.46-14.72L123.46-14.72Q123.08-13.57 122.45-10.47L122.45-10.47L122.45-10.47Q121.83-7.37 121.83-5.17L121.83-5.17L121.83-5.17Q121.83-2.96 122.17-2.32L122.17-2.32L122.17-2.32Q122.51-1.67 123.12-1.67L123.12-1.67L123.12-1.67Q124.34-1.67 125.23-2.83L125.23-2.83L125.23-2.83Q126.12-3.99 126.46-6.04L126.46-6.04L128.48-17.18L128.48-17.18Q127.68-17.86 126.75-17.86L126.75-17.86L126.75-17.86Q125.82-17.86 125.27-17.56L125.27-17.56L125.27-17.56Q124.72-17.25 124.28-16.57ZM154.55 0.76L154.55 0.76L154.55 0.76Q149.95 0.76 149.95-2.81L149.95-2.81L149.95-2.81Q149.99-3.80 150.29-5.47L150.29-5.47L150.97-8.97L150.97-8.97Q152-13.91 152-15.01L152-15.01L152-15.01Q152-17.21 150.71-17.21L150.71-17.21L150.71-17.21Q148.54-17.21 147.40-11.55L147.40-11.55L145.16 0L137.52 0.76L141.47-19.42L147.71-20.14L147.10-16.42L147.10-16.42Q148.88-20.14 154.36-20.14L154.36-20.14L154.36-20.14Q157.02-20.14 158.14-19.02L158.14-19.02L158.14-19.02Q159.26-17.90 159.26-15.39L159.26-15.39L159.26-15.39Q159.26-13.03 158.04-7.52L158.04-7.52L158.04-7.52Q157.47-5.05 157.47-4.12L157.47-4.12L157.47-4.12Q157.47-3.19 157.98-2.66L157.98-2.66L157.98-2.66Q158.50-2.13 159.26-2.05L159.26-2.05L159.26-2.05Q158.88-0.76 157.57 0L157.57 0L157.57 0Q156.26 0.76 154.55 0.76Z" fill="url(#editing-outline-gradient)"></path></g></g><style>text {
  font-size: 64px;
  font-family: Arial Black;
  dominant-baseline: central;
  text-anchor: middle;
}</style></svg>