<svg width="398.54375px" height="134px" xmlns="http://www.w3.org/2000/svg" viewBox="50.728125000000006 8 398.54375 134" style="background: rgba(0, 0, 0, 0);" preserveAspectRatio="xMidYMid"><defs><linearGradient id="editing-outline-gradient" x1="-0.41354545764260087" x2="1.4135454576426008" y1="0.09326335692419985" y2="0.9067366430758002"><stop offset="0" stop-color="#ee4208"></stop><stop offset="1" stop-color="#4139ff"></stop></linearGradient><filter id="editing-outline" x="-100%" y="-100%" width="300%" height="300%"><feMorphology in="SourceGraphic" operator="dilate" radius="1" result="outline"></feMorphology><feComposite operator="out" in="outline" in2="SourceAlpha"></feComposite></filter></defs><g filter="url(#editing-outline)"><g transform="translate(110.88999509811401, 99.15499877929688)"><path d="M26.84-37.45L26.84-47.46L47.21-47.46L47.21-37.45L44.77-37.45L33.85 0L14.09 0L3.17-37.45L0.73-37.45L0.73-47.46L24.16-47.46L24.16-37.45L20.98-37.45L25.19-17.02L25.80-17.02L30.01-37.45L26.84-37.45ZM80.09-10.00L82.78-10.00L82.78 0L66.67 0L66.67-4.15L66.67-4.15Q65.33-2.20 62.92-0.67L62.92-0.67L62.92-0.67Q60.51 0.85 57.03 0.85L57.03 0.85L57.03 0.85Q52.46 0.85 49.84-1.59L49.84-1.59L49.84-1.59Q47.21-4.03 47.21-8.48L47.21-8.48L47.21-8.48Q47.21-20.01 66.80-20.31L66.80-20.31L66.80-20.31Q66.61-22.39 65.21-23.15L65.21-23.15L65.21-23.15Q63.81-23.91 60.45-23.91L60.45-23.91L60.45-23.91Q57.71-23.91 54.56-23.33L54.56-23.33L54.56-23.33Q51.42-22.75 48.80-21.78L48.80-21.78L48.80-33.00L48.80-33.00Q52.03-33.79 55.81-34.28L55.81-34.28L55.81-34.28Q59.60-34.77 63.20-34.77L63.20-34.77L63.20-34.77Q72.28-34.77 76.19-31.48L76.19-31.48L76.19-31.48Q80.09-28.18 80.09-21.29L80.09-21.29L80.09-10.00ZM66.67-13.91L66.67-14.27L66.67-14.27Q63.93-14.27 62.43-13.54L62.43-13.54L62.43-13.54Q60.94-12.81 60.94-11.10L60.94-11.10L60.94-11.10Q60.94-10.06 61.58-9.42L61.58-9.42L61.58-9.42Q62.22-8.78 63.38-8.78L63.38-8.78L63.38-8.78Q64.97-8.78 65.82-10.13L65.82-10.13L65.82-10.13Q66.67-11.47 66.67-13.91L66.67-13.91ZM110.78-34.77L110.78-34.77Q112.00-34.77 113.09-34.53L113.09-34.53L113.09-34.53Q114.19-34.28 114.92-33.92L114.92-33.92L114.92-22.27L114.92-22.27Q112.42-23.30 109.56-23.30L109.56-23.30L109.56-23.30Q105.71-23.30 103.64-21.29L103.64-21.29L103.64-21.29Q101.56-19.28 101.56-15.31L101.56-15.31L101.56-10.00L107.06-10.00L107.06 0L84.85 0L84.85-10.00L87.53-10.00L87.53-23.91L84.85-23.91L84.85-33.92L101.56-33.92L101.56-29.46L101.56-29.46Q103.27-32.02 105.47-33.40L105.47-33.40L105.47-33.40Q107.66-34.77 110.78-34.77L110.78-34.77ZM128.89 0.85L128.89 0.85Q122.67 0.85 119.53-3.78L119.53-3.78L119.53-3.78Q116.39-8.42 116.39-16.96L116.39-16.96L116.39-16.96Q116.39-25.50 119.53-30.13L119.53-30.13L119.53-30.13Q122.67-34.77 128.89-34.77L128.89-34.77L128.89-34.77Q132.00-34.77 134.41-33.24L134.41-33.24L134.41-33.24Q136.82-31.72 138.35-29.77L138.35-29.77L138.35-37.45L134.75-37.45L134.75-47.46L152.38-47.46L152.38-10.00L155.06-10.00L155.06 0L138.35 0L138.35-4.15L138.35-4.15Q136.82-2.20 134.41-0.67L134.41-0.67L134.41-0.67Q132.00 0.85 128.89 0.85L128.89 0.85ZM134.81-10.00L134.81-10.00Q136.58-10.00 137.46-10.95L137.46-10.95L137.46-10.95Q138.35-11.89 138.35-13.91L138.35-13.91L138.35-20.01L138.35-20.01Q138.35-22.02 137.46-22.97L137.46-22.97L137.46-22.97Q136.58-23.91 134.81-23.91L134.81-23.91L134.81-23.91Q133.04-23.91 132.16-22.97L132.16-22.97L132.16-22.97Q131.27-22.02 131.27-20.01L131.27-20.01L131.27-13.91L131.27-13.91Q131.27-11.89 132.16-10.95L132.16-10.95L132.16-10.95Q133.04-10.00 134.81-10.00L134.81-10.00ZM194.83-10.00L197.52-10.00L197.52 0L178.24 0L178.24-10.00L180.80-10.00L180.80-20.01L180.80-20.01Q180.80-22.02 179.95-22.97L179.95-22.97L179.95-22.97Q179.10-23.91 177.39-23.91L177.39-23.91L177.39-23.91Q173.73-23.91 173.73-20.01L173.73-20.01L173.73-10.00L176.29-10.00L176.29 0L157.01 0L157.01-10.00L159.70-10.00L159.70-37.45L157.01-37.45L157.01-47.46L173.73-47.46L173.73-29.16L173.73-29.16Q175.98-31.96 178.61-33.37L178.61-33.37L178.61-33.37Q181.23-34.77 184.71-34.77L184.71-34.77L184.71-34.77Q189.77-34.77 192.30-31.60L192.30-31.60L192.30-31.60Q194.83-28.43 194.83-22.88L194.83-22.88L194.83-10.00ZM232.35-10.00L235.03-10.00L235.03 0L218.93 0L218.93-4.15L218.93-4.15Q217.59-2.20 215.18-0.67L215.18-0.67L215.18-0.67Q212.77 0.85 209.29 0.85L209.29 0.85L209.29 0.85Q204.72 0.85 202.09-1.59L202.09-1.59L202.09-1.59Q199.47-4.03 199.47-8.48L199.47-8.48L199.47-8.48Q199.47-20.01 219.05-20.31L219.05-20.31L219.05-20.31Q218.87-22.39 217.46-23.15L217.46-23.15L217.46-23.15Q216.06-23.91 212.71-23.91L212.71-23.91L212.71-23.91Q209.96-23.91 206.82-23.33L206.82-23.33L206.82-23.33Q203.68-22.75 201.06-21.78L201.06-21.78L201.06-33.00L201.06-33.00Q204.29-33.79 208.07-34.28L208.07-34.28L208.07-34.28Q211.85-34.77 215.45-34.77L215.45-34.77L215.45-34.77Q224.54-34.77 228.44-31.48L228.44-31.48L228.44-31.48Q232.35-28.18 232.35-21.29L232.35-21.29L232.35-10.00ZM218.93-13.91L218.93-14.27L218.93-14.27Q216.18-14.27 214.69-13.54L214.69-13.54L214.69-13.54Q213.19-12.81 213.19-11.10L213.19-11.10L213.19-11.10Q213.19-10.06 213.84-9.42L213.84-9.42L213.84-9.42Q214.48-8.78 215.63-8.78L215.63-8.78L215.63-8.78Q217.22-8.78 218.07-10.13L218.07-10.13L218.07-10.13Q218.93-11.47 218.93-13.91L218.93-13.91ZM274.81-10.00L277.49-10.00L277.49 0L258.21 0L258.21-10.00L260.77-10.00L260.77-20.01L260.77-20.01Q260.77-22.02 259.92-22.97L259.92-22.97L259.92-22.97Q259.07-23.91 257.36-23.91L257.36-23.91L257.36-23.91Q253.70-23.91 253.70-20.01L253.70-20.01L253.70-10.00L256.26-10.00L256.26 0L236.99 0L236.99-10.00L239.67-10.00L239.67-23.91L236.99-23.91L236.99-33.92L253.70-33.92L253.70-29.16L253.70-29.16Q258.09-34.77 264.68-34.77L264.68-34.77L264.68-34.77Q269.74-34.77 272.27-31.60L272.27-31.60L272.27-31.60Q274.81-28.43 274.81-22.88L274.81-22.88L274.81-10.00Z" fill="url(#editing-outline-gradient)"></path></g></g><style>text {
  font-size: 64px;
  font-family: Arial Black;
  dominant-baseline: central;
  text-anchor: middle;
}</style></svg>